<svg xmlns="http://www.w3.org/2000/svg" viewBox="0 0 64 64">
  <rect width="64" height="64" rx="18" fill="#111827"/>
  <path d="M22 28C18 20 17 11 21 8c4-2 10 7 12 16 2-9 8-18 12-16 4 3 3 12-1 20 5 4 8 10 8 17 0 10-8 15-19 15S14 55 14 45c0-7 3-13 8-17z" fill="#f8fafc"/>
  <circle cx="26" cy="42" r="3" fill="#111827"/>
  <circle cx="40" cy="42" r="3" fill="#111827"/>
  <path d="M30 49c2 2 4 2 6 0" fill="none" stroke="#111827" stroke-width="3" stroke-linecap="round"/>
  <path d="M18 30c-5 1-9 4-11 8" fill="none" stroke="#34d399" stroke-width="4" stroke-linecap="round"/>
  <path d="M46 30c5 1 9 4 11 8" fill="none" stroke="#60a5fa" stroke-width="4" stroke-linecap="round"/>
</svg>
